<svg width="266" height="266" viewBox="0 0 266 266" fill="none" xmlns="http://www.w3.org/2000/svg">
<path fill-rule="evenodd" clip-rule="evenodd" d="M131.732 75.75L151.607 55.875L178.25 29.2125C167.191 28.0608 156.021 29.7379 145.787 34.0864C135.554 38.435 126.593 45.3123 119.746 54.073C112.899 62.8337 108.391 73.1905 106.643 84.1712C104.896 95.152 105.967 106.397 109.757 116.85L115.869 133.669L103.213 146.306L32.0191 217.519C30.8975 218.591 30.0014 219.876 29.3834 221.299C28.7654 222.721 28.4379 224.254 28.4203 225.805C28.4027 227.356 28.6952 228.895 29.2808 230.332C29.8663 231.768 30.733 233.073 31.8299 234.17C32.9269 235.267 34.232 236.134 35.6686 236.72C37.1052 237.305 38.6443 237.598 40.1956 237.58C41.7468 237.562 43.2789 237.235 44.7018 236.617C46.1247 235.999 47.4098 235.103 48.4816 233.981L119.694 162.788L132.332 150.131L149.15 156.225C159.604 160.014 170.848 161.086 181.829 159.338C192.81 157.591 203.167 153.082 211.927 146.235C220.688 139.388 227.565 130.428 231.914 120.194C236.262 109.961 237.94 98.7904 236.788 87.7313L210.125 114.413L190.25 134.25L170.375 114.375L151.625 95.625L131.732 75.75ZM247.475 39.5625C259.033 55.5489 265.253 74.7735 265.25 94.5C265.256 109.562 261.633 124.405 254.687 137.77C247.741 151.135 237.676 162.63 225.346 171.281C213.016 179.932 198.783 185.485 183.852 187.47C168.92 189.454 153.731 187.812 139.569 182.681L68.3753 253.875C64.6819 257.568 60.2972 260.498 55.4715 262.497C50.6458 264.496 45.4736 265.525 40.2503 265.525C35.027 265.525 29.8549 264.496 25.0292 262.497C20.2035 260.498 15.8188 257.568 12.1253 253.875C4.66613 246.416 0.475586 236.299 0.475586 225.75C0.475586 215.201 4.66613 205.084 12.1253 197.625L83.3191 126.431C76.4321 107.446 75.8603 86.7437 81.6887 67.4068C87.5171 48.07 99.4341 31.1323 115.666 19.115C131.897 7.09768 151.576 0.643334 171.772 0.712712C191.968 0.78209 211.602 7.37148 227.75 19.5L207.575 39.675L191.394 55.8563L171.5 75.75L190.25 94.5L210.125 74.625L226.325 58.425L246.5 38.25L247.475 39.5625Z" fill="white"/>
</svg>
