<svg width="32" height="39" viewBox="0 0 32 39" fill="none" xmlns="http://www.w3.org/2000/svg">
<path d="M32 7.31379H29.5385V35.3439C29.5385 35.8517 29.4423 36.3277 29.25 36.7721C29.0577 37.2164 28.7949 37.6036 28.4615 37.9336C28.1282 38.2637 27.7372 38.5239 27.2885 38.7144C26.8397 38.9048 26.359 39 25.8462 39H6.15385C5.64103 39 5.16026 38.9048 4.71154 38.7144C4.26282 38.5239 3.8718 38.2637 3.53846 37.9336C3.20513 37.6036 2.94231 37.2164 2.75 36.7721C2.55769 36.3277 2.46154 35.8517 2.46154 35.3439V7.31379H0V4.87639H9.84615V2.43899C9.84615 2.09623 9.91026 1.77886 10.0385 1.48688C10.1667 1.1949 10.3397 0.941002 10.5577 0.72519C10.7756 0.509379 11.0385 0.331652 11.3462 0.192009C11.6538 0.052366 11.9744 -0.0111079 12.3077 0.00158685H19.6923C20.0385 0.00158685 20.359 0.0650608 20.6538 0.192009C20.9487 0.318957 21.2051 0.490336 21.4231 0.706148C21.641 0.92196 21.8205 1.1822 21.9615 1.48688C22.1026 1.79155 22.1667 2.10892 22.1538 2.43899V4.87639H32V7.31379ZM12.3077 4.87639H19.6923V2.43899H12.3077V4.87639ZM27.0769 7.31379H4.92308V35.3439C4.92308 35.674 5.04487 35.9596 5.28846 36.2008C5.53205 36.442 5.82051 36.5626 6.15385 36.5626H25.8462C26.1795 36.5626 26.4679 36.442 26.7115 36.2008C26.9551 35.9596 27.0769 35.674 27.0769 35.3439V7.31379ZM12.3077 31.6878H9.84615V12.1886H12.3077V31.6878ZM17.2308 31.6878H14.7692V12.1886H17.2308V31.6878ZM22.1538 31.6878H19.6923V12.1886H22.1538V31.6878Z" fill="#4B1218"/>
</svg>
