<svg width="24" height="24" viewBox="0 0 24 24" fill="none" xmlns="http://www.w3.org/2000/svg">
<rect width="24" height="24" rx="12" fill="white"/>
<path fill-rule="evenodd" clip-rule="evenodd" d="M8.25 5.625C6 5.625 4.5 6.75 4.5 9.375V14.625C4.5 17.25 6 18.375 8.25 18.375H15.75C18 18.375 19.5 17.25 19.5 14.625V9.375C19.5 6.75 18 5.625 15.75 5.625H8.25ZM13.755 12.0675C13.26 12.465 12.63 12.66 12 12.66C11.37 12.66 10.7325 12.465 10.245 12.0675L7.8975 10.1925C7.6575 9.9975 7.62 9.6375 7.8075 9.3975C8.0025 9.1575 8.355 9.1125 8.595 9.3075L10.9425 11.1825C11.5125 11.64 12.48 11.64 13.05 11.1825L15.3975 9.3075C15.6375 9.1125 15.9975 9.15 16.185 9.3975C16.38 9.6375 16.3425 9.9975 16.1025 10.1925L13.755 12.0675Z" fill="#212D3A"/>
</svg>
