<svg width="24" height="24" viewBox="0 0 24 24" fill="none" xmlns="http://www.w3.org/2000/svg">
<rect width="24" height="24" rx="12" fill="white"/>
<path d="M11.9979 4.3125C11.9979 4.3125 11.9979 4.3125 11.9904 4.3125C9.34287 4.3125 6.31287 5.865 5.52537 9.33C4.64787 13.2 7.01787 16.4775 9.16287 18.54C9.95787 19.305 10.9779 19.6875 11.9979 19.6875C13.0179 19.6875 14.0379 19.305 14.8254 18.54C16.9704 16.4775 19.3404 13.2075 18.4629 9.3375C17.6754 5.8725 14.6529 4.3125 11.9979 4.3125Z" fill="#212D3A"/>
<path fill-rule="evenodd" clip-rule="evenodd" d="M11.9997 12.6728C10.6949 12.6728 9.63721 11.615 9.63721 10.3103C9.63721 9.00548 10.6949 7.94775 11.9997 7.94775C13.3045 7.94775 14.3622 9.00548 14.3622 10.3103C14.3622 11.615 13.3045 12.6728 11.9997 12.6728Z" fill="white"/>
</svg>
