<svg width="24" height="24" viewBox="0 0 24 24" fill="none" xmlns="http://www.w3.org/2000/svg">
<rect width="24" height="24" rx="12" fill="white"/>
<path d="M10.2425 16.9933C9.97254 16.7533 9.71004 16.5058 9.45504 16.2508C8.68254 15.4708 7.98504 14.6533 7.36254 13.7983C6.74754 12.9433 6.25254 12.0883 5.89254 11.2408C5.53254 10.3858 5.35254 9.5683 5.35254 8.7883C5.35254 8.2783 5.44254 7.7908 5.62254 7.3408C5.80254 6.8833 6.08754 6.4633 6.48504 6.0883C6.96504 5.6158 7.49004 5.3833 8.04504 5.3833C8.25504 5.3833 8.46504 5.4283 8.65254 5.5183C8.84754 5.6083 9.02004 5.7433 9.15504 5.9383L10.895 8.3908C11.03 8.5783 11.1275 8.7508 11.195 8.9158C11.2625 9.0733 11.3 9.2308 11.3 9.3733C11.3 9.5533 11.2475 9.7333 11.1425 9.9058C11.045 10.0783 10.9025 10.2583 10.7225 10.4383L10.1525 11.0308C10.07 11.1133 10.0325 11.2108 10.0325 11.3308C10.0325 11.3908 10.04 11.4433 10.055 11.5033C10.0775 11.5633 10.1 11.6083 10.115 11.6533C10.25 11.9008 10.4825 12.2233 10.8125 12.6133C11.15 13.0033 11.51 13.4008 11.9 13.7983C12.17 14.0608 12.4325 14.3158 12.695 14.5408L10.2425 16.9933Z" fill="#212D3A"/>
<path d="M19.3546 17.5669C19.3321 17.6269 19.3096 17.6869 19.2796 17.7469C19.1521 18.0169 18.9871 18.2719 18.7696 18.5119C18.4021 18.9169 17.9971 19.2094 17.5396 19.3969C17.5321 19.3969 17.5246 19.4044 17.5171 19.4044C17.0746 19.5844 16.5946 19.6819 16.0771 19.6819C15.3121 19.6819 14.4946 19.5019 13.6321 19.1344C12.7696 18.7669 11.9071 18.2719 11.0521 17.6494C10.7596 17.4319 10.505 17.241 10.2275 17.0085L12.4775 14.3835C12.6875 14.541 13.0396 14.8069 13.1971 14.8894C13.2346 14.9044 13.2796 14.9269 13.3321 14.9494C13.3921 14.9719 13.4521 14.9794 13.5196 14.9794C13.6471 14.9794 13.7446 14.9344 13.8271 14.8519L14.3971 14.2894C14.5846 14.1019 14.7646 13.9594 14.9371 13.8694C15.1096 13.7644 15.2821 13.7119 15.4696 13.7119C15.6121 13.7119 15.7621 13.7419 15.9271 13.8094C16.0921 13.8769 16.2646 13.9744 16.4521 14.1019L18.9346 15.8644C19.1296 15.9994 19.2646 16.1569 19.3471 16.3444C19.4221 16.5319 19.4671 16.7194 19.4671 16.9294C19.4671 17.1394 19.4296 17.3569 19.3546 17.5669Z" fill="#212D3A"/>
</svg>
