<svg width="300" height="300" viewBox="0 0 300 300" fill="none" xmlns="http://www.w3.org/2000/svg">
<circle cx="150" cy="150" r="150" fill="#4B1218"/>
<path d="M77.3438 164.906C77.3438 165.135 77.2812 165.333 77.1562 165.5C77.0312 165.646 76.8021 165.771 76.4688 165.875C76.1562 165.979 75.7292 166.052 75.1875 166.094C74.6458 166.156 73.9479 166.188 73.0938 166.188C72.1979 166.188 71.4688 166.156 70.9062 166.094C70.3646 166.052 69.9271 165.979 69.5938 165.875C69.2604 165.75 69.0104 165.594 68.8438 165.406C68.6771 165.198 68.5521 164.948 68.4688 164.656L65.2188 155.656C64.7604 154.344 64.2812 153.25 63.7812 152.375C63.2812 151.479 62.7292 150.76 62.125 150.219C61.5208 149.656 60.8333 149.26 60.0625 149.031C59.2917 148.802 58.4271 148.688 57.4688 148.688H55.625V164.875C55.625 165.104 55.5625 165.302 55.4375 165.469C55.3125 165.615 55.0938 165.75 54.7812 165.875C54.4688 165.979 54.0521 166.052 53.5312 166.094C53.0104 166.156 52.3438 166.188 51.5312 166.188C50.7396 166.188 50.0729 166.156 49.5312 166.094C49.0104 166.052 48.5938 165.979 48.2812 165.875C47.9688 165.75 47.7396 165.615 47.5938 165.469C47.4688 165.302 47.4062 165.104 47.4062 164.875V126.656C47.4062 126.427 47.4688 126.24 47.5938 126.094C47.7396 125.927 47.9688 125.792 48.2812 125.688C48.5938 125.583 49.0104 125.51 49.5312 125.469C50.0729 125.406 50.7396 125.375 51.5312 125.375C52.3438 125.375 53.0104 125.406 53.5312 125.469C54.0521 125.51 54.4688 125.583 54.7812 125.688C55.0938 125.792 55.3125 125.927 55.4375 126.094C55.5625 126.24 55.625 126.427 55.625 126.656V141.844H57.4688C58.4062 141.844 59.2292 141.719 59.9375 141.469C60.6458 141.219 61.2812 140.823 61.8438 140.281C62.4271 139.74 62.9479 139.042 63.4062 138.188C63.8854 137.312 64.3438 136.24 64.7812 134.969L67.5 126.906C67.6042 126.615 67.7292 126.375 67.875 126.188C68.0208 125.979 68.25 125.823 68.5625 125.719C68.8958 125.594 69.3229 125.51 69.8438 125.469C70.3854 125.406 71.1042 125.375 72 125.375C72.8125 125.375 73.4792 125.406 74 125.469C74.5417 125.51 74.9583 125.583 75.25 125.688C75.5625 125.771 75.7708 125.896 75.875 126.062C75.9792 126.208 76.0312 126.396 76.0312 126.625C76.0312 126.896 75.9792 127.229 75.875 127.625C75.7917 128.021 75.6354 128.542 75.4062 129.188L72.6875 136.375C72.1875 137.708 71.6875 138.844 71.1875 139.781C70.6875 140.719 70.1562 141.521 69.5938 142.188C69.0521 142.833 68.4688 143.365 67.8438 143.781C67.2396 144.198 66.5625 144.542 65.8125 144.812V144.844C66.6458 145.198 67.3958 145.604 68.0625 146.062C68.75 146.5 69.3854 147.062 69.9688 147.75C70.5729 148.438 71.1458 149.281 71.6875 150.281C72.2292 151.281 72.7812 152.51 73.3438 153.969L76.6562 162.344C76.9896 163.198 77.1875 163.792 77.25 164.125C77.3125 164.438 77.3438 164.698 77.3438 164.906ZM101.798 139.469C101.798 140.156 101.766 140.729 101.704 141.188C101.662 141.646 101.589 142.01 101.485 142.281C101.381 142.552 101.245 142.74 101.079 142.844C100.933 142.948 100.766 143 100.579 143H93.5475V164.938C93.5475 165.146 93.485 165.333 93.36 165.5C93.235 165.646 93.0267 165.771 92.735 165.875C92.4433 165.979 92.0371 166.052 91.5163 166.094C91.0163 166.156 90.3808 166.188 89.61 166.188C88.86 166.188 88.235 166.156 87.735 166.094C87.235 166.052 86.8288 165.979 86.5163 165.875C86.2246 165.771 86.0163 165.646 85.8913 165.5C85.7871 165.333 85.735 165.146 85.735 164.938V143H78.7038C78.4954 143 78.3079 142.948 78.1413 142.844C77.9954 142.719 77.8704 142.521 77.7663 142.25C77.6621 141.979 77.5788 141.604 77.5163 141.125C77.4746 140.646 77.4538 140.062 77.4538 139.375C77.4538 138.75 77.485 138.229 77.5475 137.812C77.61 137.375 77.6933 137.021 77.7975 136.75C77.9017 136.479 78.0267 136.292 78.1725 136.188C78.3183 136.062 78.4954 136 78.7038 136H100.579C100.766 136 100.933 136.062 101.079 136.188C101.245 136.292 101.381 136.479 101.485 136.75C101.589 137.021 101.662 137.385 101.704 137.844C101.766 138.281 101.798 138.823 101.798 139.469ZM133.033 150.719C133.033 153.094 132.72 155.26 132.095 157.219C131.47 159.177 130.522 160.865 129.251 162.281C127.98 163.698 126.387 164.792 124.47 165.562C122.553 166.333 120.314 166.719 117.751 166.719C115.272 166.719 113.116 166.375 111.283 165.688C109.449 165 107.928 164 106.72 162.688C105.512 161.375 104.616 159.76 104.033 157.844C103.449 155.927 103.158 153.74 103.158 151.281C103.158 148.906 103.47 146.74 104.095 144.781C104.741 142.802 105.699 141.115 106.97 139.719C108.241 138.302 109.824 137.208 111.72 136.438C113.637 135.667 115.876 135.281 118.439 135.281C120.939 135.281 123.105 135.625 124.939 136.312C126.772 136.979 128.283 137.969 129.47 139.281C130.678 140.594 131.574 142.208 132.158 144.125C132.741 146.042 133.033 148.24 133.033 150.719ZM124.939 151.031C124.939 149.656 124.824 148.396 124.595 147.25C124.387 146.083 124.022 145.073 123.501 144.219C122.98 143.365 122.283 142.698 121.408 142.219C120.553 141.74 119.47 141.5 118.158 141.5C116.991 141.5 115.97 141.719 115.095 142.156C114.22 142.573 113.501 143.198 112.939 144.031C112.376 144.844 111.949 145.833 111.658 147C111.387 148.146 111.251 149.458 111.251 150.938C111.251 152.312 111.366 153.583 111.595 154.75C111.824 155.896 112.189 156.896 112.689 157.75C113.21 158.604 113.908 159.271 114.783 159.75C115.658 160.208 116.741 160.438 118.033 160.438C119.22 160.438 120.251 160.229 121.126 159.812C122.001 159.375 122.72 158.75 123.283 157.938C123.845 157.125 124.262 156.146 124.533 155C124.803 153.833 124.939 152.51 124.939 151.031ZM191.815 164.781C191.857 165.302 191.617 165.667 191.096 165.875C190.575 166.083 189.648 166.188 188.315 166.188C187.503 166.188 186.846 166.177 186.346 166.156C185.867 166.135 185.492 166.083 185.221 166C184.971 165.917 184.794 165.802 184.69 165.656C184.607 165.49 184.555 165.281 184.534 165.031L182.878 150.062C182.815 149.521 182.753 148.917 182.69 148.25C182.648 147.583 182.596 146.906 182.534 146.219C182.492 145.531 182.45 144.854 182.409 144.188C182.367 143.5 182.315 142.885 182.253 142.344L182.284 141.562C182.138 142.125 181.971 142.74 181.784 143.406C181.617 144.073 181.43 144.75 181.221 145.438C181.013 146.125 180.815 146.812 180.628 147.5C180.44 148.167 180.263 148.771 180.096 149.312L175.19 164.75C175.107 165 174.982 165.219 174.815 165.406C174.648 165.594 174.409 165.75 174.096 165.875C173.805 165.979 173.419 166.052 172.94 166.094C172.482 166.156 171.898 166.188 171.19 166.188C170.544 166.188 169.992 166.156 169.534 166.094C169.096 166.052 168.721 165.979 168.409 165.875C168.117 165.75 167.888 165.594 167.721 165.406C167.555 165.219 167.44 164.99 167.378 164.719L162.596 149.312C162.43 148.771 162.242 148.167 162.034 147.5C161.846 146.833 161.648 146.156 161.44 145.469C161.253 144.781 161.065 144.104 160.878 143.438C160.711 142.75 160.565 142.125 160.44 141.562L160.471 142.344C160.43 142.885 160.388 143.5 160.346 144.188C160.305 144.854 160.253 145.531 160.19 146.219C160.128 146.906 160.065 147.583 160.003 148.25C159.94 148.917 159.888 149.521 159.846 150.062L158.253 164.844C158.211 165.115 158.138 165.344 158.034 165.531C157.93 165.698 157.732 165.833 157.44 165.938C157.148 166.042 156.753 166.104 156.253 166.125C155.753 166.167 155.096 166.188 154.284 166.188C153.555 166.188 152.971 166.167 152.534 166.125C152.096 166.083 151.753 166.01 151.503 165.906C151.273 165.781 151.117 165.635 151.034 165.469C150.971 165.281 150.95 165.052 150.971 164.781L153.721 138.688C153.825 137.792 154.117 137.125 154.596 136.688C155.075 136.229 155.805 136 156.784 136H160.753C161.586 136 162.294 136.062 162.878 136.188C163.461 136.312 163.971 136.531 164.409 136.844C164.846 137.156 165.211 137.583 165.503 138.125C165.794 138.667 166.055 139.344 166.284 140.156L169.409 149.719C169.596 150.344 169.784 151 169.971 151.688C170.159 152.354 170.346 153.031 170.534 153.719C170.721 154.385 170.888 155.042 171.034 155.688C171.2 156.312 171.346 156.906 171.471 157.469H171.503C171.628 156.906 171.773 156.292 171.94 155.625C172.107 154.958 172.273 154.281 172.44 153.594C172.628 152.906 172.815 152.229 173.003 151.562C173.211 150.896 173.409 150.271 173.596 149.688L176.721 140.156C176.93 139.406 177.159 138.771 177.409 138.25C177.659 137.708 177.982 137.281 178.378 136.969C178.773 136.635 179.263 136.396 179.846 136.25C180.43 136.083 181.148 136 182.003 136H185.94C186.94 136 187.68 136.229 188.159 136.688C188.659 137.125 188.95 137.792 189.034 138.688L191.815 164.781ZM235.206 164.938C235.206 165.146 235.144 165.333 235.019 165.5C234.894 165.646 234.685 165.771 234.394 165.875C234.102 165.979 233.706 166.052 233.206 166.094C232.706 166.156 232.06 166.188 231.269 166.188C230.519 166.188 229.894 166.156 229.394 166.094C228.894 166.052 228.488 165.979 228.175 165.875C227.883 165.771 227.675 165.646 227.55 165.5C227.425 165.333 227.363 165.146 227.363 164.938V137.062C227.363 136.854 227.425 136.677 227.55 136.531C227.675 136.365 227.883 136.229 228.175 136.125C228.488 136.021 228.894 135.948 229.394 135.906C229.894 135.844 230.519 135.812 231.269 135.812C232.06 135.812 232.706 135.844 233.206 135.906C233.706 135.948 234.102 136.021 234.394 136.125C234.685 136.229 234.894 136.365 235.019 136.531C235.144 136.677 235.206 136.854 235.206 137.062V164.938ZM205.425 145.656C206.133 145.594 206.852 145.542 207.581 145.5C208.31 145.458 209.123 145.438 210.019 145.438C212.31 145.438 214.29 145.677 215.956 146.156C217.623 146.615 218.998 147.281 220.081 148.156C221.165 149.031 221.967 150.094 222.488 151.344C223.029 152.573 223.3 153.979 223.3 155.562C223.3 157.208 222.998 158.719 222.394 160.094C221.81 161.448 220.915 162.615 219.706 163.594C218.498 164.552 216.956 165.302 215.081 165.844C213.206 166.365 210.977 166.625 208.394 166.625C207.706 166.625 207.008 166.615 206.3 166.594C205.592 166.594 204.894 166.573 204.206 166.531C203.54 166.51 202.883 166.479 202.238 166.438C201.592 166.396 200.977 166.344 200.394 166.281C199.394 166.177 198.665 165.875 198.206 165.375C197.769 164.875 197.55 164.115 197.55 163.094V137.062C197.55 136.854 197.613 136.677 197.738 136.531C197.863 136.365 198.071 136.229 198.363 136.125C198.654 136.021 199.04 135.948 199.519 135.906C199.998 135.844 200.592 135.812 201.3 135.812C202.8 135.812 203.863 135.917 204.488 136.125C205.113 136.333 205.425 136.646 205.425 137.062V145.656ZM215.269 156C215.269 155.271 215.154 154.625 214.925 154.062C214.717 153.479 214.363 152.99 213.863 152.594C213.383 152.177 212.748 151.865 211.956 151.656C211.165 151.448 210.196 151.344 209.05 151.344C208.342 151.344 207.685 151.365 207.081 151.406C206.498 151.427 205.946 151.458 205.425 151.5V160.5C206.029 160.562 206.623 160.615 207.206 160.656C207.79 160.698 208.467 160.719 209.238 160.719C211.321 160.719 212.842 160.302 213.8 159.469C214.779 158.635 215.269 157.479 215.269 156ZM265.598 135.125C265.598 136.833 265.348 138.375 264.848 139.75C264.368 141.125 263.681 142.312 262.785 143.312C261.91 144.312 260.848 145.115 259.598 145.719C258.368 146.323 257.004 146.708 255.504 146.875L255.254 152.969C255.233 153.344 254.931 153.625 254.348 153.812C253.785 154 252.962 154.094 251.879 154.094C251.191 154.094 250.608 154.083 250.129 154.062C249.67 154.021 249.306 153.958 249.035 153.875C248.764 153.792 248.566 153.677 248.441 153.531C248.316 153.385 248.243 153.198 248.223 152.969L247.941 145.594C247.92 144.927 247.952 144.385 248.035 143.969C248.118 143.552 248.264 143.219 248.473 142.969C248.702 142.719 248.983 142.552 249.316 142.469C249.65 142.365 250.045 142.312 250.504 142.312H250.941C252.045 142.312 252.993 142.135 253.785 141.781C254.598 141.427 255.264 140.958 255.785 140.375C256.306 139.792 256.681 139.104 256.91 138.312C257.16 137.521 257.285 136.677 257.285 135.781C257.285 134.781 257.139 133.865 256.848 133.031C256.577 132.198 256.15 131.479 255.566 130.875C255.004 130.271 254.285 129.812 253.41 129.5C252.556 129.167 251.545 129 250.379 129C249.316 129 248.379 129.104 247.566 129.312C246.754 129.521 246.056 129.75 245.473 130C244.889 130.25 244.4 130.479 244.004 130.688C243.629 130.896 243.337 131 243.129 131C242.983 131 242.848 130.958 242.723 130.875C242.598 130.771 242.493 130.594 242.41 130.344C242.327 130.094 242.254 129.74 242.191 129.281C242.15 128.823 242.129 128.24 242.129 127.531C242.129 126.802 242.16 126.271 242.223 125.938C242.285 125.604 242.42 125.333 242.629 125.125C242.837 124.917 243.233 124.677 243.816 124.406C244.4 124.115 245.098 123.854 245.91 123.625C246.723 123.375 247.629 123.167 248.629 123C249.629 122.833 250.67 122.75 251.754 122.75C254.212 122.75 256.316 123.094 258.066 123.781C259.816 124.448 261.243 125.354 262.348 126.5C263.473 127.646 264.295 128.958 264.816 130.438C265.337 131.917 265.598 133.479 265.598 135.125ZM256.348 161.906C256.348 162.76 256.275 163.479 256.129 164.062C256.004 164.646 255.764 165.115 255.41 165.469C255.077 165.823 254.618 166.073 254.035 166.219C253.473 166.385 252.775 166.469 251.941 166.469C251.066 166.469 250.348 166.385 249.785 166.219C249.223 166.073 248.764 165.823 248.41 165.469C248.077 165.115 247.837 164.646 247.691 164.062C247.566 163.479 247.504 162.76 247.504 161.906C247.504 161.031 247.566 160.302 247.691 159.719C247.837 159.115 248.077 158.635 248.41 158.281C248.764 157.906 249.223 157.646 249.785 157.5C250.348 157.333 251.066 157.25 251.941 157.25C252.775 157.25 253.473 157.333 254.035 157.5C254.618 157.646 255.077 157.906 255.41 158.281C255.764 158.635 256.004 159.115 256.129 159.719C256.275 160.302 256.348 161.031 256.348 161.906Z" fill="white"/>
</svg>
